<?xml version="1.0" encoding="UTF-8"?>
<!DOCTYPE svg PUBLIC "-//W3C//DTD SVG 1.1//EN" "http://www.w3.org/Graphics/SVG/1.1/DTD/svg11.dtd">
<!-- Creator: CorelDRAW 2018 (64-Bit) -->
<svg xmlns="http://www.w3.org/2000/svg" xml:space="preserve" width="422px" height="383px" version="1.1" style="shape-rendering:geometricPrecision; text-rendering:geometricPrecision; image-rendering:optimizeQuality; fill-rule:evenodd; clip-rule:evenodd"
viewBox="0 0 5.56 5.04"
 xmlns:xlink="http://www.w3.org/1999/xlink">
 <defs>
  <style type="text/css">
   <![CDATA[
    .fil0 {fill:#C18F23}
   ]]>
  </style>
 </defs>
 <g id="Layer_x0020_1">
  <metadata id="CorelCorpID_0Corel-Layer"/>
  <path class="fil0" d="M4.89 4.51c0.04,0.14 0.11,0.25 0.2,0.32 0.19,0.13 0.35,0.04 0.35,0.18 -0.11,0.08 -0.36,-0.02 -0.47,-0.07 -0.49,-0.22 -0.58,-0.72 -0.54,-1.24 -0.3,0.05 -0.48,0.09 -0.81,0.08 -0.17,0 -0.54,-0.06 -0.58,-0.04 -0.05,0.02 -0.07,0.06 -0.13,0.08 -0.06,0.11 -2,1.38 -2.7,0.83 -0.36,-0.28 -0.21,-0.81 0.08,-1.02 0.16,-0.12 0.48,-0.23 0.54,-0.09 -0.06,0.14 -0.2,-0.04 -0.48,0.19 -0.1,0.08 -0.2,0.28 -0.19,0.48 0.01,0.43 0.45,0.5 0.86,0.4 0.35,-0.07 0.68,-0.24 0.95,-0.4 0.16,-0.1 0.67,-0.44 0.79,-0.56l-0.4 -0.16c-0.36,-0.17 -0.65,-0.44 -0.89,-0.76 -0.29,-0.41 -0.53,-1.14 -0.29,-1.73 0.25,-0.65 0.97,-0.79 1.43,-0.52 0.36,0.21 0.5,0.66 0.59,1.08 0.02,0.11 0.05,0.38 0.08,0.47 0.04,-0.07 0.17,-0.74 0.3,-0.97 0.01,-0.01 0.01,-0.02 0.02,-0.03 0.01,-0.01 0,-0.01 0.02,-0.02 0.02,-0.16 0.32,-0.54 0.44,-0.66 0.11,-0.11 0.22,-0.2 0.38,-0.27 0.21,-0.08 0.53,-0.12 0.74,-0.02 0.65,0.28 0.29,1.5 0.15,2.01 -0.23,0.77 -0.63,1.89 -0.44,2.44zm-0.53 -1.95l0.63 -0.71c-0.03,0.11 -0.12,0.29 -0.17,0.4 -0.1,0.25 -0.22,0.58 -0.28,0.84 -0.02,0.07 -0.08,0.44 -0.1,0.47 -0.07,0.06 -0.49,0.09 -0.61,0.1 -0.19,0.01 -0.46,0 -0.65,-0.04l1.18 -1.06zm-0.74 -1.17c0.17,-0.46 0.5,-0.98 1.05,-1.04 0.32,-0.04 0.7,0.02 0.67,0.37 -0.03,0.31 -0.39,0.79 -0.58,1.01l-1.03 1.07c-0.05,0.05 -0.07,0.07 -0.13,0.13l-0.69 0.62c-0.14,0.04 -0.62,-0.23 -0.72,-0.3 -1.19,-0.85 -1,-2.51 -0.13,-2.58 0.94,-0.06 1.01,1.1 1.11,1.72 0.01,0.04 0.01,0.08 0.02,0.12 0.03,0.16 0.17,0.12 0.18,0.01 0.08,-0.64 0.04,-0.44 0.25,-1.13z"/>
 </g>
</svg>
