<?xml version="1.0" encoding="UTF-8"?>
<!DOCTYPE svg PUBLIC "-//W3C//DTD SVG 1.1//EN" "http://www.w3.org/Graphics/SVG/1.1/DTD/svg11.dtd">
<!-- Creator: CorelDRAW 2018 (64-Bit) -->
<svg xmlns="http://www.w3.org/2000/svg" xml:space="preserve" width="87px" height="87px" version="1.1" style="shape-rendering:geometricPrecision; text-rendering:geometricPrecision; image-rendering:optimizeQuality; fill-rule:evenodd; clip-rule:evenodd"
viewBox="0 0 0.26 0.26"
 xmlns:xlink="http://www.w3.org/1999/xlink">
 <defs>
  <style type="text/css">
   <![CDATA[
    .fil0 {fill:#C18F23}
   ]]>
  </style>
 </defs>
 <g id="Layer_x0020_1">
  <metadata id="CorelCorpID_0Corel-Layer"/>
  <path class="fil0" d="M0.15 0.02c-0.01,0 -0.01,0 -0.02,-0.01 -0.03,-0.02 -0.06,-0.01 -0.09,0.01 -0.01,0 -0.01,0 -0.01,0l-0.01 0.01c0,0.01 -0.01,0.01 -0.01,0.02 -0.01,0.03 -0.01,0.06 0,0.08 0.01,0.02 0.02,0.03 0.04,0.03 0.02,0.02 0.05,0.02 0.08,0 0,0 0.01,0 0.01,0l0.01 -0.01 0 0.01c0,0 0,0 0.01,0 0,0.01 0,0.01 0,0.02 0,0 0,0.01 0.01,0.01l0.05 0.06c0.01,0 0.01,0.01 0.02,0.01 0.01,0 0.02,-0.01 0.02,-0.02 0,-0.01 -0.01,-0.01 -0.01,-0.02l-0.06 -0.05c0,-0.01 -0.01,-0.01 -0.02,-0.01 0,0 0,0 -0.01,0 0,-0.01 0,-0.01 0,-0.01l-0.01 0 0.01 -0.01c0,0 0,0 0,0 0,-0.01 0,-0.01 0,-0.01 0.01,-0.01 0.01,-0.01 0.01,-0.02 0.01,-0.02 0,-0.05 -0.01,-0.08 -0.01,0 -0.01,0 -0.01,0l0 -0.01zm-0.07 -0.01c0.01,0 0.02,0 0.03,0 0.01,0.01 0.02,0.01 0.03,0.02l0 0 0.01 0.01 0 0c0.01,0.01 0.01,0.02 0.01,0.04 0.01,0.04 -0.02,0.08 -0.06,0.08 -0.05,0.01 -0.08,-0.02 -0.09,-0.06 0,-0.02 0,-0.04 0.02,-0.06 0,0 0,0 0,0 0.01,-0.02 0.03,-0.03 0.05,-0.03z"/>
 </g>
</svg>
