<?xml version="1.0" encoding="UTF-8"?>
<!DOCTYPE svg PUBLIC "-//W3C//DTD SVG 1.1//EN" "http://www.w3.org/Graphics/SVG/1.1/DTD/svg11.dtd">
<!-- Creator: CorelDRAW 2018 (64-Bit) -->
<svg xmlns="http://www.w3.org/2000/svg" xml:space="preserve" width="1367px" height="418px" version="1.1" style="shape-rendering:geometricPrecision; text-rendering:geometricPrecision; image-rendering:optimizeQuality; fill-rule:evenodd; clip-rule:evenodd"
viewBox="0 0 56.78 17.34"
 xmlns:xlink="http://www.w3.org/1999/xlink">
 <defs>
  <style type="text/css">
   <![CDATA[
    .fil1 {fill:url(#id0)}
    .fil0 {fill:url(#id1)}
   ]]>
  </style>
  <linearGradient id="id0" gradientUnits="userSpaceOnUse" x1="35.27" y1="19.64" x2="30.32" y2="11.96">
   <stop offset="0" style="stop-opacity:1; stop-color:#B57E10"/>
   <stop offset="0.670588" style="stop-opacity:1; stop-color:#F9DF7B"/>
   <stop offset="1" style="stop-opacity:1; stop-color:#B57E10"/>
  </linearGradient>
  <linearGradient id="id1" gradientUnits="userSpaceOnUse" xlink:href="#id0" x1="42.4" y1="22.73" x2="14.37" y2="-6.83">
  </linearGradient>
 </defs>
 <g id="Layer_x0020_1">
  <metadata id="CorelCorpID_0Corel-Layer"/>
  <g id="_1689437713632">
   <path class="fil0" d="M48.47 9.9c0.05,-0.52 1.05,-2.92 1.51,-2.5 0.35,0.32 -1.39,2.33 -1.51,2.5zm-5.4 1.15c-1.08,-0.28 -0.06,-2.69 0.98,-2.84 0.97,-0.14 0.18,1.22 0.03,1.49 -0.36,0.6 -0.65,0.91 -1.01,1.35zm10.66 -2.13c-0.75,1.71 -3.09,4.07 -2.61,2.21 0.18,-0.7 0.64,-1.64 1.01,-2.1 0.2,-0.25 0.45,-0.58 0.81,-0.73 0.48,-0.19 1,0.15 0.79,0.62zm-44.54 3.13c0.18,-0.04 0.25,-0.17 0.4,-0.25 0.12,-0.07 1.32,0.14 1.86,0.14 1.02,0.01 1.58,-0.11 2.53,-0.26 -0.1,1.66 0.16,3.23 1.7,3.93 0.36,0.16 1.16,0.45 1.49,0.2 0,-0.43 -0.51,-0.13 -1.09,-0.56 -0.29,-0.22 -0.5,-0.57 -0.65,-1.01 -0.24,-0.7 -0.2,-2.26 0,-2.99 0.24,-0.15 0.69,-0.3 0.98,-0.44 0.3,-0.15 0.69,-0.37 0.98,-0.49 -0.3,0.91 -0.85,1.28 -0.12,1.75 0.68,0.43 0.72,-0.19 1.21,-1.13 0.5,-0.95 0.84,-1.65 1.66,-2.3 0.21,-0.17 0.55,-0.42 0.91,-0.35 0.13,0.63 -0.43,1.71 -0.76,2.25 -0.21,0.35 -0.25,0.26 -0.72,0.31 -2.07,0.21 -1.47,1.63 0.08,1.29 0.47,-0.1 1.05,-0.49 1.29,-0.74 0.56,-0.59 0.43,-0.16 1.48,-0.6 0.6,-0.25 0.81,-0.53 1.15,-0.93 0.08,-0.09 0.13,-0.18 0.21,-0.28 0.17,-0.21 0.6,-0.72 0.75,-0.83 0.31,0.5 0.36,0.26 -0.33,1.45 -0.24,0.41 -0.68,1.13 -0.3,1.63 0.59,0.79 1.66,0 2.18,-0.49 0.14,-0.12 0.48,-0.46 0.63,-0.55 -0.06,1.6 1.24,1.94 2.64,0.49l0.38 -0.38c-0.04,0.66 -0.02,1.12 0.6,1.25 0.6,0.13 1.04,-0.18 1.34,-0.43l0.36 -0.29c-0.11,0.59 0.86,1.05 1.1,0.52 0.61,-1.31 1.11,-2.35 2.14,-3.39 0.47,-0.47 0.62,-0.38 0.63,-0.38 0.01,0 0.02,0.01 0.03,0.01 0.01,0 0.02,0.01 0.03,0.01 0.14,0.57 -1.53,3.3 -1.47,3.51 0.03,0.11 0.65,0.68 1.14,0.29 0.13,-0.11 0.99,-1.75 1.26,-2.19 0.18,-0.28 1.18,-1.75 1.67,-1.64 0.1,0.02 0.03,0 0.09,0.04 0.2,0.45 -1.36,2.36 -1.08,3.4 0.19,0.72 1.15,0.66 1.58,0.42 0.7,-0.37 1.06,-0.88 1.31,-1.04 0.02,0.62 0.31,0.94 0.82,1.1 1.01,0.31 1.68,-0.56 2.14,-0.59 1.21,-0.07 1.34,-0.35 2.07,-0.79 -0.06,0.77 -0.15,1.41 0.76,1.47 0.66,0.04 1.33,-0.55 1.57,-0.86 0.33,0.14 0.61,0.38 1.26,0.09 0.23,-0.11 0.83,-0.49 0.93,-0.65 0.08,0.52 -0.03,0.78 0.31,1.15 0.21,0.23 0.69,0.33 1.1,0.22 0.72,-0.18 1.24,-0.87 1.63,-1.26 -0.06,0.62 -0.04,1.15 0.59,1.28 0.99,0.21 1.84,-0.85 2.37,-1.5 0.14,-0.17 0.28,-0.36 0.43,-0.56 0.1,-0.14 0.36,-0.4 0.34,-0.62 -0.33,-0.26 -0.53,0.18 -0.69,0.39 -0.22,0.28 -0.38,0.48 -0.59,0.74 -0.2,0.24 -1.03,1.31 -1.43,1.12 -0.19,-0.74 1.32,-2.97 1.38,-3.35 -0.26,-0.27 -0.92,-0.57 -1.38,-0.64l-0.05 0.43c-0.33,-0.14 -0.31,-0.25 -0.81,-0.3 -1.22,-0.13 -2.26,0.8 -2.8,1.77 -0.16,0.28 -0.32,0.42 -0.53,0.63 -1.35,1.45 -1.78,0.81 -1.42,0.37 0.43,-0.53 2.63,-3.2 1.75,-3.56 -1.03,-0.42 -2.75,1.88 -2.58,3.89 -0.28,0.2 -0.72,0.87 -1.13,0.78 -0.21,-0.75 1.31,-3 1.37,-3.37 -0.21,-0.25 -0.95,-0.57 -1.38,-0.63 0.05,0.45 -0.63,1.96 -0.84,2.19 -0.37,0.41 -1.06,1.07 -1.89,1.13 0.09,-0.12 0.13,-0.15 0.24,-0.28 0.09,-0.1 0.18,-0.22 0.25,-0.33 1.94,-2.68 -0.19,-2.88 -1.25,-2.38 -0.39,0.19 -0.98,0.78 -1.13,1.14 -0.53,-0.03 -0.47,-0.08 -0.93,0.5 -0.22,0.29 -0.4,0.51 -0.63,0.78 -0.15,0.18 -1.21,1.42 -1.52,1.24 -0.11,-0.1 0.17,-0.57 0.27,-0.74 0.14,-0.26 0.27,-0.49 0.41,-0.76 0.22,-0.44 0.6,-1.17 0.49,-1.76 -0.05,-0.32 -0.23,-0.53 -0.49,-0.63 -0.24,-0.1 -0.72,-0.15 -0.99,-0.09 -0.62,0.12 -1,0.67 -1.33,0.99 -0.01,-0.76 -0.26,-1.12 -1.12,-1 -0.57,0.08 -1.06,0.59 -1.32,0.83 0.09,-0.3 0.15,-0.47 -0.18,-0.61 -0.22,-0.09 -0.58,-0.16 -0.84,-0.18 -0.09,0.51 -0.57,1.54 -0.81,1.92 -0.18,0.29 -1.22,1.47 -1.26,1.55 -0.01,0.01 -0.9,0.9 -0.89,0.29 0,-0.36 0.42,-1.24 0.57,-1.54 0.15,-0.3 0.8,-1.45 0.83,-1.63 -0.17,-0.24 -0.97,-0.58 -1.38,-0.64l-0.04 0.43c-0.41,-0.15 -0.85,-0.57 -1.98,-0.11 -0.7,0.29 -1.22,0.89 -1.57,1.46 -0.34,0.57 -2.03,2.32 -2.34,1.93 -0.1,-0.21 0.49,-1.01 0.6,-1.18 0.55,-0.88 0.45,-0.79 0.07,-1.19 -0.46,-0.51 -0.49,-0.64 -0.01,-1.16 0.29,-0.31 0.69,-0.5 1.19,-0.7 -0.05,-0.29 -0.36,-0.49 -0.61,-0.61 -0.37,-0.18 -0.57,-0.14 -0.93,0.05 -0.52,0.27 -0.81,0.78 -0.99,1.5 -0.09,0.37 -0.72,1.2 -0.97,1.53 -0.35,0.46 -0.95,0.84 -1.57,0.94 0.16,-0.45 0.76,-1.33 0.4,-2.17 -0.15,-0.35 -0.37,-0.54 -0.81,-0.59 -0.5,-0.07 -0.74,0.15 -1.11,0.28 0.05,-0.15 0.18,-0.36 0.29,-0.43 0.04,-0.03 0.83,-0.34 1.44,-0.72 0.62,-0.39 1.95,-1.47 2.07,-2.21 0.08,-0.47 -0.21,-0.73 -0.64,-0.77 -0.91,-0.09 -1.59,0.46 -2.06,0.85 -1.25,1.05 -2.21,2.57 -3.08,4.1 -0.09,0.17 -0.14,0.29 -0.24,0.47 -0.22,0.37 -1.94,1.19 -2.34,1.31 0.08,-0.55 1.05,-3.36 1.3,-4.22 0.46,-1.59 1.58,-5.44 -0.45,-6.35 -0.67,-0.3 -1.69,-0.19 -2.34,0.07 -0.5,0.21 -0.85,0.52 -1.21,0.86 -0.39,0.38 -1.34,1.57 -1.4,2.08 -0.04,0.04 -0.02,0.02 -0.06,0.08 -0.03,0.03 -0.03,0.04 -0.05,0.08 -0.4,0.74 -0.84,2.84 -0.94,3.05 -0.12,-0.27 -0.2,-1.12 -0.27,-1.48 -0.28,-1.32 -0.73,-2.73 -1.84,-3.4 -1.46,-0.87 -3.74,-0.4 -4.54,1.62 -0.75,1.9 -0.01,4.19 0.93,5.47 0.74,1.01 1.67,1.87 2.82,2.42l1.23 0.51c-0.35,0.38 -1.97,1.45 -2.48,1.75 -0.85,0.5 -1.88,1.03 -2.99,1.28 -1.3,0.3 -2.69,0.07 -2.73,-1.29 -0.03,-0.61 0.3,-1.24 0.61,-1.49 0.89,-0.73 1.33,-0.18 1.52,-0.63 -0.19,-0.43 -1.21,-0.08 -1.73,0.3 -0.89,0.65 -1.36,2.35 -0.25,3.23 2.23,1.74 8.34,-2.27 8.54,-2.64zm2.23 -7.65c0.54,-1.47 1.6,-3.12 3.33,-3.3 1.01,-0.11 2.2,0.05 2.11,1.18 -0.08,0.98 -1.22,2.48 -1.83,3.17l-3.24 3.4c-0.16,0.15 -0.23,0.21 -0.43,0.41l-2.16 1.94c-0.47,0.13 -1.96,-0.71 -2.28,-0.95 -3.77,-2.68 -3.18,-7.92 -0.41,-8.12 2.98,-0.22 3.17,3.45 3.51,5.43 0.02,0.12 0.04,0.24 0.06,0.36 0.1,0.51 0.52,0.39 0.56,0.04 0.26,-2.04 0.14,-1.4 0.78,-3.56zm9.38 2.65c0.06,-0.15 0.42,-0.6 0.54,-0.77 0.19,-0.26 0.39,-0.47 0.58,-0.71 0.21,-0.28 1.03,-1.2 1.51,-1.03 0.27,0.66 -1.96,2.31 -2.63,2.51zm-7.04 1.03l2 -2.23c-0.09,0.34 -0.38,0.89 -0.53,1.25 -0.33,0.8 -0.7,1.82 -0.9,2.67 -0.06,0.22 -0.26,1.37 -0.32,1.46 -0.21,0.2 -1.52,0.31 -1.9,0.33 -0.61,0.03 -1.47,0 -2.06,-0.12l3.71 -3.36zm15.96 0.2c0.47,-0.15 0.9,0.23 0.68,0.7 -0.15,0.31 -0.4,0.68 -0.58,0.96 -1.27,2 -2.96,2.92 -1.56,0.01 0.3,-0.62 0.84,-1.47 1.46,-1.67zm12.24 2.4c0.18,0.24 0.2,0.36 0.46,0.53l0.22 0.16c-0.16,0.15 -0.67,0.45 -0.92,0.21 -0.22,-0.21 0.12,-0.77 0.24,-0.9z"/>
   <path class="fil1" d="M27.39 15.15c0.13,0.39 0.3,0.75 0.46,1.13 0.06,0.16 0.37,1 0.5,1.03 0.26,0.06 0.32,-0.3 0.4,-0.51 0.16,-0.37 0.63,-1.41 0.68,-1.66 -0.34,0 -0.26,0.04 -0.38,0.34l-0.63 1.49c-0.13,-0.18 -0.33,-0.76 -0.44,-0.99 -0.34,-0.78 -0.22,-0.84 -0.59,-0.83zm13.5 0c-0.27,-0.01 -0.24,-0.02 -0.34,0.2l-0.53 1.04c-0.11,-0.22 -0.23,-0.46 -0.34,-0.69 -0.07,-0.12 -0.12,-0.23 -0.18,-0.37 -0.09,-0.2 -0.08,-0.18 -0.33,-0.18 0.09,0.3 0.37,0.79 0.52,1.08 0.36,0.76 0.1,0.41 -0.08,1.08l0.24 -0.01 1.04 -2.15zm-16.18 1.6c-0.02,0.39 0.47,0.68 0.9,0.56 0.39,-0.11 0.66,-0.57 0.37,-0.96 -0.21,-0.29 -0.92,-0.28 -0.97,-0.62 -0.03,-0.24 0.18,-0.41 0.43,-0.38 0.37,0.05 0.06,0.25 0.54,0.25 -0.04,-0.42 -0.57,-0.63 -0.94,-0.4 -0.4,0.25 -0.36,0.77 0.04,0.98 0.29,0.15 0.97,0.21 0.73,0.7 -0.09,0.19 -0.31,0.25 -0.52,0.21 -0.27,-0.05 -0.26,-0.19 -0.39,-0.34l-0.19 0zm12.66 -1.13c0.13,-0.17 0.3,-0.29 0.4,-0.47 -0.28,-0.02 -0.29,0 -0.42,0.16l-0.76 0.81 -0.01 -0.98c-0.28,0 -0.24,0.01 -0.24,0.18l0 1.98 0.24 0.01c0.03,-0.48 -0.11,-0.79 0.2,-1.01 0.09,0.05 0,-0.02 0.1,0.08 0.03,0.04 0.02,0.03 0.06,0.07 0.05,0.07 0.05,0.08 0.11,0.14 0.47,0.49 0.47,0.73 0.9,0.72 -0.11,-0.18 -0.36,-0.47 -0.51,-0.62 -0.11,-0.12 -0.42,-0.48 -0.48,-0.62l0.41 -0.45zm-2.6 1.17c-0.53,-0.02 -0.47,0.43 -1.13,0.29 -0.91,-0.18 -0.92,-1.45 -0.07,-1.69 0.65,-0.18 0.69,0.28 1.19,0.27 -0.13,-0.36 -0.72,-0.66 -1.28,-0.49 -1.09,0.34 -1.02,1.86 0.06,2.14 0.54,0.13 1.12,-0.18 1.23,-0.52zm-3.81 -1.64l0.18 0 0 2.15 -0.18 0 0 -2.15zm2.85 -0.41l0.33 -0.38 -0.12 -0.1 -0.23 0.25 -0.25 -0.24 -0.12 0.07 0.29 0.41 0.1 -0.01z"/>
  </g>
 </g>
</svg>
