<?xml version="1.0" encoding="UTF-8"?>
<!DOCTYPE svg PUBLIC "-//W3C//DTD SVG 1.1//EN" "http://www.w3.org/Graphics/SVG/1.1/DTD/svg11.dtd">
<!-- Creator: CorelDRAW 2018 (64-Bit) -->
<svg xmlns="http://www.w3.org/2000/svg" xml:space="preserve" width="200px" height="155px" version="1.1" style="shape-rendering:geometricPrecision; text-rendering:geometricPrecision; image-rendering:optimizeQuality; fill-rule:evenodd; clip-rule:evenodd"
viewBox="0 0 0.87 0.67"
 xmlns:xlink="http://www.w3.org/1999/xlink">
 <defs>
  <style type="text/css">
   <![CDATA[
    .fil0 {fill:#FEFEFE}
   ]]>
  </style>
 </defs>
 <g id="Layer_x0020_1">
  <metadata id="CorelCorpID_0Corel-Layer"/>
  <g id="_1687377752304">
   <path class="fil0" d="M0.29 0.22l0.14 0c0,0.04 0,0.09 0,0.14 0,0.02 0,0.11 0,0.13l-0.14 0 0 -0.27zm-0.07 -0.06l0.05 0 0 0.33 -0.05 0 0 -0.33zm-0.16 0.06l0.14 0 0 0.27 -0.13 0 -0.01 -0.27zm0.23 -0.06l0.18 0 0 0.04 -0.18 0 0 -0.04zm-0.27 0c0.01,0 0.15,0 0.18,0l0 0.04 -0.18 0 0 -0.04zm0.22 -0.02c-0.05,0 -0.08,0 -0.11,-0.02 -0.01,-0.01 -0.02,-0.02 -0.02,-0.04 -0.02,-0.06 0.04,-0.09 0.1,-0.04 0.02,0.02 0.03,0.06 0.03,0.1zm0.02 0c0,-0.04 0,-0.08 0.03,-0.1 0.02,-0.02 0.06,-0.04 0.08,-0.01 0.02,0.02 0.03,0.06 -0.01,0.09 -0.03,0.02 -0.06,0.02 -0.1,0.02zm-0.13 0l-0.13 0 0 0.08 0.05 0 0 0.29 0.4 0 0 -0.29 0.04 0 0 -0.08 -0.13 0c0,0 0.01,-0.01 0.01,-0.01 0.02,-0.01 0.03,-0.03 0.03,-0.05 0.01,-0.03 0,-0.06 -0.02,-0.07 -0.03,-0.02 -0.06,-0.01 -0.09,0 -0.01,0.01 -0.03,0.03 -0.04,0.04 0,0.01 0,0.02 0,0.02 -0.02,-0.02 -0.02,-0.04 -0.05,-0.06 -0.07,-0.03 -0.12,0.01 -0.11,0.07 0,0.04 0.02,0.04 0.04,0.06z"/>
   <path class="fil0" d="M0.53 0.15c0.01,0 0.14,0 0.17,0 0.01,0.03 0.03,0.05 0.05,0.08l0.07 0.11c0,0.01 0,0.17 0,0.19l0.03 0c0,0.01 0,0.02 0,0.02l-0.13 0 0 0.02c0.03,0 0.09,0 0.12,0 0.01,0 0.02,0 0.03,-0.01 0,0 0,-0.04 -0.01,-0.04 0,-0.01 -0.01,-0.01 -0.02,-0.01 0,-0.04 0,-0.08 0,-0.13 0,-0.03 0,-0.04 -0.01,-0.05l-0.1 -0.16c0,-0.01 -0.02,-0.03 -0.02,-0.04 -0.05,0 -0.11,0 -0.16,0 -0.03,0 -0.04,0.01 -0.04,0.04 0,0.04 0.01,0.37 0,0.38l-0.21 0 0 0.02 0.24 0 0 -0.02c0,0 0,0 -0.01,0l0 -0.4z"/>
   <path class="fil0" d="M0.58 0.35c0,-0.05 0,-0.1 0,-0.15 0.01,0 0.07,0 0.08,0 0.02,0.02 0.04,0.05 0.05,0.07 0.01,0.02 0.02,0.03 0.03,0.04 0.01,0.01 0.02,0.03 0.02,0.04 -0.03,0 -0.15,0 -0.18,0zm0.2 0c0,-0.01 -0.02,-0.05 -0.04,-0.06 -0.01,-0.02 -0.02,-0.04 -0.04,-0.06 -0.03,-0.06 -0.02,-0.05 -0.05,-0.05 -0.02,0 -0.03,0 -0.05,0 -0.05,0 -0.04,0 -0.04,0.12 0,0.05 0,0.07 0.03,0.07 0.03,0 0.07,0 0.1,0 0.03,0 0.08,0 0.09,-0.02z"/>
   <path class="fil0" d="M0.69 0.61c0,0.03 -0.03,0.05 -0.07,0.05 -0.03,-0.01 -0.06,-0.04 -0.05,-0.08 0.01,-0.02 0.04,-0.05 0.07,-0.04 0.03,0 0.06,0.03 0.05,0.07zm0.02 0c0.01,-0.04 -0.03,-0.08 -0.06,-0.09 -0.05,-0.01 -0.09,0.02 -0.1,0.06 -0.02,0.1 0.13,0.14 0.16,0.03z"/>
   <path class="fil0" d="M0.15 0.61c-0.01,-0.04 0.02,-0.07 0.05,-0.07 0.08,-0.02 0.1,0.11 0.02,0.12 -0.04,0 -0.06,-0.02 -0.07,-0.05zm-0.02 0c0.01,0.04 0.04,0.07 0.09,0.06 0.04,0 0.07,-0.04 0.07,-0.08 -0.01,-0.04 -0.04,-0.08 -0.09,-0.07 -0.04,0 -0.07,0.04 -0.07,0.09z"/>
   <path class="fil0" d="M0.63 0.59c0,0 0.01,0 0.01,0l0 0.01c-0.01,0.01 -0.02,0 -0.02,-0.01l0.01 0zm-0.03 0.01c0.01,0.03 0.06,0.03 0.06,-0.01 -0.01,-0.03 -0.06,-0.03 -0.06,0.01z"/>
   <path class="fil0" d="M0.2 0.59l0.01 0 0 0c0.01,0 0.01,0 0.01,0.01l-0.01 0c-0.01,0 -0.01,0 -0.01,-0.01zm0 -0.02c-0.03,0.01 -0.01,0.06 0.02,0.05 0.03,-0.01 0.02,-0.06 -0.02,-0.05z"/>
   <polygon class="fil0" points="0.12,0.55 0.01,0.55 0.01,0.57 0.12,0.57 "/>
  </g>
 </g>
</svg>
