<?xml version="1.0" encoding="UTF-8"?>
<!DOCTYPE svg PUBLIC "-//W3C//DTD SVG 1.1//EN" "http://www.w3.org/Graphics/SVG/1.1/DTD/svg11.dtd">
<!-- Creator: CorelDRAW 2018 (64-Bit) -->
<svg xmlns="http://www.w3.org/2000/svg" xml:space="preserve" width="171px" height="175px" version="1.1" style="shape-rendering:geometricPrecision; text-rendering:geometricPrecision; image-rendering:optimizeQuality; fill-rule:evenodd; clip-rule:evenodd"
viewBox="0 0 0.66 0.67"
 xmlns:xlink="http://www.w3.org/1999/xlink">
 <defs>
  <style type="text/css">
   <![CDATA[
    .fil0 {fill:#FEFEFE}
    .fnt0 {font-weight:900;font-size:0.09px;font-family:'Nexa Heavy'}
   ]]>
  </style>
 </defs>
 <g id="Layer_x0020_1">
  <metadata id="CorelCorpID_0Corel-Layer"/>
  <g id="_1689396408800">
   <path class="fil0" d="M0.6 0.52c-0.02,0.01 -0.03,0.03 -0.04,0.04 0,-0.01 0.01,-0.02 0.01,-0.03 0.01,0 0.02,-0.01 0.02,-0.02 0,0 0,0 0,0l-0.01 0.01c0,0 0,0 -0.01,0 0,0.01 0,0.01 -0.01,0.02 -0.01,0.01 -0.02,0.02 -0.03,0.03 -0.02,0.01 -0.05,0.03 -0.08,0.04 0,-0.01 0,-0.01 0,-0.01 0,0 0,0 0,0 0,0 0.01,0 0.01,0 0,0 0,0 0,0 0,0 0.01,0 0.01,-0.01 0.02,-0.01 0.04,-0.02 0.05,-0.03 0.07,-0.06 0.11,-0.14 0.1,-0.25 -0.01,-0.1 -0.07,-0.2 -0.15,-0.26 -0.01,0 -0.03,-0.01 -0.04,-0.02 0.04,0 0.09,0.04 0.11,0.07 0.07,0.08 0.1,0.21 0.08,0.33 -0.01,0.02 -0.02,0.04 -0.02,0.06 0,-0.01 0.02,-0.03 0.02,-0.04 0,0.01 -0.01,0.04 -0.02,0.05 0.08,-0.08 0.07,-0.26 0.01,-0.36 0.01,0.02 0.02,0.04 0.02,0.07 0.02,0.06 0.02,0.13 0.01,0.19 0,0.01 -0.01,0.03 -0.01,0.03 0,-0.01 0.01,-0.05 0.01,-0.08 0,-0.11 -0.05,-0.24 -0.14,-0.3 -0.03,-0.02 -0.09,-0.05 -0.14,-0.04 0.01,0 0.03,0 0.03,0.01 0.01,0 0.03,0.01 0.03,0.01 -0.01,0 -0.03,-0.01 -0.04,-0.01 0.02,0 0.08,0.03 0.09,0.04 0.02,0.02 0.05,0.04 0.06,0.06 0.04,0.05 0.07,0.11 0.08,0.18 0.02,0.12 -0.03,0.21 -0.11,0.27 -0.02,0.01 -0.07,0.04 -0.09,0.04l0.01 0c-0.02,0.02 -0.06,0.02 -0.09,0.02 0.04,0.01 0.12,-0.01 0.16,-0.03 0.01,0 0.01,0 0.02,-0.01 0.01,0 0.01,-0.01 0.02,-0.01 0,0.01 -0.01,0.01 -0.01,0.01 -0.03,0.03 -0.07,0.05 -0.11,0.06 -0.06,0.02 -0.12,0.01 -0.17,0 -0.1,-0.03 -0.17,-0.1 -0.2,-0.19 -0.05,-0.1 -0.04,-0.21 0.02,-0.3 0.02,-0.04 0.06,-0.08 0.09,-0.1 0.04,-0.03 0.09,-0.05 0.15,-0.05l-0.01 0c-0.02,0.01 -0.04,0.01 -0.09,0.03 -0.02,0.02 -0.05,0.04 -0.07,0.06 -0.03,0.03 -0.08,0.08 -0.1,0.15 -0.03,0.09 0,0.17 0.05,0.24 0.01,0.02 0.03,0.05 0.06,0.07 0,0 0.01,0.01 0.01,0.01 0.01,0 0.02,0.01 0.02,0.01l0 0c0.01,0 0.01,0 0.02,0.01 0.04,0.02 0.06,0.03 0.11,0.03 0.03,0.01 0.07,0.01 0.1,0 -0.05,0 -0.06,0 -0.12,-0.01 -0.03,-0.01 -0.07,-0.02 -0.09,-0.04 -0.05,-0.02 -0.07,-0.05 -0.1,-0.09 0,0 0,0 -0.01,0 0,-0.01 -0.01,-0.03 -0.02,-0.04 0,0 0.01,0.01 0,-0.01 -0.05,-0.1 -0.03,-0.2 0.04,-0.28 0.04,-0.06 0.11,-0.1 0.18,-0.12 0.02,-0.01 0.07,-0.02 0.1,-0.01 -0.01,-0.01 -0.05,-0.01 -0.06,-0.01 0.01,0 0.02,0 0.04,0 -0.06,-0.02 -0.14,0 -0.19,0.02 -0.04,0.03 -0.08,0.07 -0.11,0.11 -0.07,0.1 -0.08,0.24 -0.02,0.35 0.01,0.03 0.03,0.05 0.04,0.07 0.02,0.02 0.04,0.04 0.06,0.05 0.05,0.03 0.1,0.05 0.17,0.06 0.09,0.01 0.18,-0.03 0.24,-0.09 0.01,-0.01 0.04,-0.04 0.05,-0.06z"/>
   <path class="fil0" d="M0.33 0.22c-0.02,-0.03 -0.09,-0.08 -0.04,-0.1 0.02,-0.01 0.03,0.02 0.04,0.02 0.01,0.01 0.01,-0.02 0.03,-0.02 0.01,0 0.03,0.02 0.02,0.03 0,0.01 0,0.01 -0.01,0.02 -0.01,0.01 -0.03,0.03 -0.04,0.05zm0 -0.11c-0.05,-0.03 -0.1,0.01 -0.06,0.07 0,0 0.01,0 0.01,0.01 0.01,0.01 0.03,0.03 0.05,0.03 0.01,0 0,0 0.01,-0.01 0.01,0 0.01,-0.01 0.02,-0.01l0 0c0,0 0.04,-0.04 0.04,-0.04 0.01,-0.03 -0.02,-0.08 -0.07,-0.05z"/>
   <path class="fil0" d="M0.24 0.53c0.02,-0.01 0.03,0 0.04,0.01 0.01,0 0.02,-0.01 0.04,-0.01 0.02,0 0.03,0.01 0.04,0.01 0.02,-0.01 0.03,-0.01 0.05,-0.01 -0.01,-0.01 0,0 -0.01,-0.01 -0.01,0 -0.02,0 -0.04,0.01 -0.01,0 -0.02,-0.01 -0.04,-0.01 -0.02,-0.01 -0.03,0.01 -0.04,0.01 -0.02,-0.01 -0.02,-0.01 -0.04,0z"/>
   <text x="0.18" y="0.34"  class="fil0 fnt0">HAND</text>
   <text x="0.18" y="0.44"  class="fil0 fnt0">MADE</text>
  </g>
 </g>
</svg>
