<?xml version="1.0" encoding="UTF-8"?>
<!DOCTYPE svg PUBLIC "-//W3C//DTD SVG 1.1//EN" "http://www.w3.org/Graphics/SVG/1.1/DTD/svg11.dtd">
<!-- Creator: CorelDRAW 2018 (64-Bit) -->
<svg xmlns="http://www.w3.org/2000/svg" xml:space="preserve" width="128px" height="128px" version="1.1" style="shape-rendering:geometricPrecision; text-rendering:geometricPrecision; image-rendering:optimizeQuality; fill-rule:evenodd; clip-rule:evenodd"
viewBox="0 0 0.56 0.55"
 xmlns:xlink="http://www.w3.org/1999/xlink">
 <defs>
  <style type="text/css">
   <![CDATA[
    .fil0 {fill:#C18F23}
   ]]>
  </style>
 </defs>
 <g id="Layer_x0020_1">
  <metadata id="CorelCorpID_0Corel-Layer"/>
  <g id="_1687377738160">
   <g>
    <path class="fil0" d="M0.4 0.28l0 0 -0.08 0 0 -0.06c0,0 0,0.03 0,0.03 0,0 0,0.03 0,0.03 0,0 0.06,0 0.08,0 0,0 0,0 0,0z"/>
    <path class="fil0" d="M0.16 0.28l0.08 0c0,0 0,-0.07 0,-0.07 -0.01,0 0,0.01 0,0.01l0 0.06 -0.07 0c-0.01,0 -0.01,0 -0.01,0z"/>
   </g>
   <path class="fil0" d="M0.24 0.55l0 -0.19 -0.08 0 0 -0.08c0,0 0,0 0.01,0l0.07 0 0 -0.06c0,0 -0.01,-0.01 0,-0.01 -0.01,-0.01 0,-0.02 0,-0.03 0,-0.01 0.01,-0.02 0.01,-0.02 0.03,-0.06 0.09,-0.06 0.15,-0.05 0,0.01 0,0.07 0,0.07 -0.02,0 -0.04,0 -0.05,0.01 -0.01,0 -0.02,0 -0.02,0.01 0,0 -0.01,0.02 -0.01,0.02l0 0.06 0.08 0 0 0 -0.01 0.08 -0.07 0 0 0.19c0.01,0 0.02,0 0.03,0 0.03,-0.01 0.06,-0.02 0.09,-0.04 0,-0.01 0.01,-0.01 0.01,-0.01 0,0 0.01,-0.01 0.01,-0.01l0.01 -0.01c0.06,-0.06 0.09,-0.14 0.09,-0.22 -0.01,-0.14 -0.13,-0.26 -0.28,-0.26 -0.15,0 -0.27,0.12 -0.28,0.26 0,0.04 0,0.08 0.02,0.11 0.01,0.04 0.03,0.08 0.06,0.11 0.02,0.01 0.02,0.02 0.04,0.03 0.02,0.01 0.04,0.02 0.06,0.03 0.02,0.01 0.04,0.01 0.06,0.01z"/>
  </g>
 </g>
</svg>
